<svg width="230" height="230" viewBox="0 0 230 230" fill="none" xmlns="http://www.w3.org/2000/svg">
<path d="M30.9855 104.911C33.3546 105.545 35.4582 106.921 36.9879 108.838C38.4163 110.643 39.1771 112.886 39.1414 115.187C39.1414 123.461 33.7216 127.624 22.8231 127.624H5.50977V86.0917H22.5809C32.1964 86.0917 37.0272 89.5282 37.0272 96.4601C37.0088 98.2131 36.4613 99.9198 35.4562 101.356C34.3228 102.95 32.7711 104.201 30.9724 104.969L30.9855 104.911ZM17.1742 101.592H20.9052C22.1039 101.674 23.2895 101.3 24.2238 100.545C24.6075 100.188 24.91 99.7539 25.1111 99.2705C25.3121 98.7871 25.4069 98.2662 25.389 97.743C25.3508 96.9072 24.9977 96.1167 24.4006 95.5306C23.981 95.1595 23.4917 94.8758 22.9612 94.6959C22.4307 94.5161 21.8697 94.4438 21.311 94.4833H17.1152V101.533L17.1742 101.592ZM17.1742 119.069H21.0165C25.1533 119.069 27.1956 117.675 27.1956 114.873C27.1956 111.495 25.2711 109.807 21.4877 109.807H17.2396V118.971L17.1742 119.069ZM65.6121 84.8677C72.0858 84.8677 77.4467 86.9623 81.8127 91.1581C86.1786 95.3539 88.3584 100.597 88.3584 106.868C88.3584 113.138 86.2048 118.46 81.8127 122.577C77.4205 126.695 72.053 128.868 65.5794 128.868C59.1057 128.868 53.7972 126.767 49.4443 122.577C45.0914 118.388 42.8986 113.132 42.8986 106.9C42.8986 100.669 45.0522 95.4193 49.4443 91.2235C53.8365 87.0277 59.1712 84.9331 65.5794 84.9331L65.6121 84.8677ZM73.3098 114.526C74.3117 113.518 75.0969 112.316 75.6169 110.993C76.137 109.67 76.381 108.255 76.334 106.835C76.3815 105.423 76.1374 104.017 75.6171 102.704C75.0968 101.391 74.3113 100.199 73.3098 99.2027C72.3018 98.1985 71.0988 97.4115 69.7748 96.8902C68.4509 96.369 67.0342 96.1246 65.6121 96.172C64.2097 96.1543 62.818 96.4184 61.5195 96.9487C60.2211 97.479 59.0424 98.2647 58.0534 99.2592C57.0644 100.254 56.2852 101.437 55.7621 102.738C55.239 104.039 54.9826 105.433 55.0081 106.835C54.9658 108.239 55.204 109.637 55.7086 110.947C56.2133 112.258 56.9743 113.454 57.9471 114.467C58.9359 115.483 60.1249 116.282 61.4388 116.814C62.7526 117.346 64.1626 117.599 65.5794 117.557C67.0014 117.604 68.4182 117.36 69.7421 116.839C71.066 116.317 72.2691 115.53 73.2771 114.526H73.3098ZM105.384 127.578H93.6669V86.0917H105.325L105.384 127.578ZM142.962 96.1393H132.443V127.559H120.792V96.1393H110.188V86.0917H142.917L142.962 96.1393ZM147.95 127.493V86.059H159.281V110.54C160.199 108.743 161.21 106.995 162.311 105.303C163.418 103.614 167.613 97.2063 175.01 86.0721H187.447V127.559H176.149V102.993C174.637 105.729 173.472 107.653 172.712 108.884C171.953 110.114 167.875 116.346 160.42 127.591H147.983L147.95 127.493Z" fill="#1976D2"/>
<path d="M144.01 46.3677H224.49V183.633H216.05V58.3677L144.01 46.3677Z" fill="#E22C26"/>
<path d="M204.985 125.516C206.76 123.741 206.76 120.863 204.985 119.088C203.21 117.313 200.332 117.313 198.558 119.088C196.783 120.863 196.783 123.741 198.558 125.516C200.332 127.29 203.21 127.29 204.985 125.516Z" fill="#E22C26"/>
</svg>
