<svg width="74" height="76" viewBox="0 0 74 76" fill="none" xmlns="http://www.w3.org/2000/svg">
<path d="M34.4779 15.127L35.0191 14.0555C36.8419 10.4467 38.6651 6.83728 40.4886 3.22723C41.9215 0.390306 44.4785 -0.471415 47.3013 0.952008C55.1861 4.9219 63.0652 8.9017 70.9384 12.8914C73.7564 14.3148 74.5984 16.9054 73.1799 19.7184C70.4211 25.1801 67.6624 30.6418 64.9036 36.1035L64.312 37.2747C66.3672 37.8677 68.3118 38.3327 70.1863 38.998C72.6547 39.8816 73.4842 42.2686 72.2522 44.5839C71.5364 45.9322 70.3225 46.9475 68.8697 47.4129C67.5052 47.8785 66.063 48.1268 64.6626 48.4684C66.38 53.0698 65.2777 55.3376 60.5086 56.973C62.7202 61.7471 59.3194 65.8588 55.193 65.2276C55.2045 66.2608 55.357 67.329 55.1978 68.3577C54.8643 70.5735 52.907 72.0557 50.6712 71.9104C49.7439 71.8556 48.8201 71.752 47.9038 71.6C47.225 71.4833 46.9045 71.7232 46.5698 72.3096C46.1181 73.1039 45.601 73.9326 44.9096 74.4976C43.4178 75.7145 41.6972 75.8006 39.9741 74.9591C37.9198 73.9551 35.8704 72.9368 33.848 71.8647C33.1082 71.4694 32.5681 71.4588 31.8081 71.9074C27.6418 74.3236 23.2207 75.5886 18.3559 74.6687C18.1805 74.6354 17.9414 74.6615 17.8412 74.5555C17.507 74.2134 16.9696 73.8169 16.977 73.4502C16.988 72.7339 17.6351 72.6229 18.261 72.7682C20.5731 73.3223 22.9903 73.2637 25.2742 72.5984C27.0975 72.0758 28.8606 71.3112 30.6501 70.656L30.6289 70.2459L29.5358 69.6938C25.0689 67.4375 20.6019 65.1812 16.135 62.9249C13.1849 61.4347 12.3599 58.9009 13.8471 55.9518C16.4284 50.8415 18.9944 45.7235 21.6063 40.6238C21.9132 40.0655 22.3378 39.5805 22.8505 39.2025C28.7032 34.751 32.3347 28.8792 33.9859 21.7618C34.2155 20.715 34.2594 19.6362 34.1157 18.5745C33.988 17.8066 33.6369 17.0937 33.1062 16.5248C31.9347 15.2715 30.8508 15.2244 29.7004 16.4887C28.3085 18.0684 27.002 19.7214 25.7863 21.4406C23.863 24.078 21.8203 26.6141 19.2321 28.6317C13.3673 33.2022 8.32085 38.6119 3.29921 44.0534C2.93762 44.4458 2.59112 44.8987 2.13712 45.1505C1.84087 45.3137 1.2288 45.3028 1.01483 45.0985C0.800856 44.8942 0.88199 44.3578 0.880914 43.9651C0.881421 43.8546 1.04314 43.739 1.14339 43.6357C4.92891 39.7424 8.69246 35.8259 12.52 31.9683C13.5796 30.9044 14.7182 29.9225 15.926 29.0309C20.1215 25.91 23.3299 21.9177 26.2613 17.6507C26.9577 16.6538 27.7653 15.7396 28.6685 14.9257C30.3102 13.4357 31.9117 13.3905 33.7443 14.6193C33.9432 14.7583 34.1441 14.8982 34.4779 15.127ZM50.2587 53.9417C50.1588 53.7445 50.0618 53.5655 49.9744 53.3818C48.3978 50.0954 50.2926 46.3393 53.8863 45.7847C54.8483 45.6355 55.8769 45.811 56.8616 45.9499C57.5807 46.0533 57.9338 45.8491 58.263 45.1878C61.0421 39.6144 63.8633 34.0624 66.6712 28.5035C68.3172 25.2449 69.9631 21.9863 71.6091 18.7277C72.375 17.2114 72.056 15.6261 70.6981 14.8752C68.5784 13.701 66.3812 12.6658 64.2486 11.5886C62.9807 12.7478 62.7676 12.7652 61.2552 12.0157L53.789 8.24447C52.2575 7.47088 52.1509 7.28231 52.3085 5.54308C50.3941 4.57609 48.4472 3.59267 46.5041 2.61118C44.561 1.62968 43.1082 2.09881 42.1323 4.01178C40.0502 8.09266 37.9846 12.1819 35.9357 16.2796C35.7733 16.5837 35.7161 16.9329 35.7728 17.2727C36.2968 19.1277 36.1454 20.9735 35.6669 22.7865C33.8059 29.8437 30.2392 35.8155 24.39 40.3169C23.8714 40.6871 23.4369 41.163 23.1152 41.7132C20.5615 46.6786 18.0499 51.6653 15.5421 56.6539C14.4286 58.8583 14.8763 60.1936 17.0578 61.2979L40.222 72.9984C42.7279 74.2642 44.4239 73.4896 45.2215 70.7119C43.92 69.5733 43.3623 68.1753 43.5747 66.418C43.7871 64.6607 44.8141 63.5266 46.2608 62.7224C43.9989 58.4378 45.5002 55.1469 50.2587 53.9417ZM53.2371 54.0723C53.4954 54.1656 53.7616 54.2356 54.0324 54.2816C56.0144 54.5249 57.9973 54.7902 59.9873 54.9606C62.0262 55.134 63.3596 53.9309 63.5677 51.849C63.7609 49.8968 62.6335 48.466 60.6391 48.2044C58.7271 47.9604 56.8073 47.7606 54.8913 47.5579C53.2639 47.3879 51.8685 48.3094 51.4519 49.824C50.9525 51.6024 51.5554 53.1868 53.239 54.0685L53.2371 54.0723ZM58.9121 61.7988C60.0368 59.6482 59.0758 57.0697 56.9591 56.703C54.7112 56.3206 52.4431 56.0682 50.166 55.9471C48.4654 55.8508 47.2212 57.2673 47.0812 59.143C46.9504 60.8861 47.9692 62.3703 49.5828 62.6056C51.6998 62.9098 53.8296 63.1459 55.9605 63.3513C57.3088 63.4791 58.279 62.8047 58.914 61.7949L58.9121 61.7988ZM60.0374 45.728C62.4886 46.5836 65.187 46.6835 67.4159 46.0097C68.6687 45.6321 69.7969 45.035 70.5389 43.8989C71.3563 42.6469 70.9737 41.1593 69.6161 40.731C67.7872 40.1513 65.9165 39.6971 64.0477 39.2584C63.8737 39.2423 63.6985 39.2699 63.5378 39.3387C63.3772 39.4076 63.2362 39.5155 63.1277 39.6526C62.0815 41.6287 61.0918 43.6405 60.0393 45.7241L60.0374 45.728ZM45.7934 65.46C44.9764 67.0346 45.3955 68.9641 46.5904 69.2814C48.0276 69.668 49.4962 69.9268 50.9791 70.0546C52.3659 70.1632 53.3698 69.0511 53.5043 67.5384C53.6328 66.0996 52.8321 64.9494 51.4622 64.7217C50.3712 64.5412 49.2684 64.4268 48.1665 64.3249C47.0646 64.2231 46.2372 64.7098 45.7934 65.46Z" fill="#C2C2C2"/>
<path d="M51.1159 21.9892C52.8728 22.9348 54.1903 24.3032 55.0685 26.0944C55.2335 26.4341 55.1619 26.691 54.8726 26.8386C54.5647 26.9951 54.2848 26.8939 54.112 26.5483C53.3995 25.1205 52.3814 23.9651 51.0038 23.1569C49.3703 22.1994 47.6002 21.9317 45.7386 22.209C45.3682 22.2639 45.1222 22.1572 45.0384 21.9013C44.9136 21.5243 45.0751 21.2461 45.4735 21.1788C47.4399 20.849 49.3219 21.1135 51.1159 21.9892Z" fill="#F7F3F3"/>
<path d="M50.2285 23.821C51.5584 24.5384 52.6105 25.6253 53.3232 27.0379C53.5368 27.4663 53.4547 27.7229 53.0857 27.8716C52.7759 27.9959 52.558 27.8768 52.3601 27.4884C51.8954 26.5557 51.2042 25.7544 50.3499 25.1578C49.0258 24.2356 47.5526 23.948 45.9662 24.1411C45.8554 24.1585 45.7436 24.169 45.6315 24.1724C45.3413 24.1729 45.1833 24.0254 45.1285 23.7093C45.0833 23.4477 45.1881 23.2352 45.4378 23.1833C45.842 23.0947 46.2531 23.0414 46.6665 23.0241C47.8926 22.9841 49.0612 23.242 50.2285 23.821Z" fill="#F7F3F3"/>
<path d="M49.237 25.5309C50.4495 26.1472 51.2049 26.972 51.7948 27.9602C51.8313 28.0159 51.8562 28.0783 51.8683 28.1437C51.8804 28.2091 51.8793 28.2763 51.8652 28.3413C51.851 28.4063 51.8241 28.4679 51.7859 28.5224C51.7477 28.5769 51.6991 28.6233 51.6428 28.6588C51.3849 28.832 51.1003 28.7807 50.8982 28.522C50.5798 28.1162 50.3033 27.6675 49.9377 27.3101C48.8872 26.2859 47.5989 25.9658 46.1621 26.1307C45.9738 26.1525 45.7181 26.1268 45.5939 26.0126C45.4697 25.8984 45.4287 25.6448 45.4407 25.4579C45.4554 25.2246 45.6772 25.1379 45.8877 25.1002C47.0345 24.8958 48.3265 25.0871 49.237 25.5309Z" fill="#F7F3F3"/>
<path d="M48.0882 28.3154C47.5621 28.0386 47.0121 27.9534 46.4362 28.0015C46.3322 28.0117 46.2307 28.0233 46.1272 28.0274C45.7842 28.0365 45.5916 27.8719 45.5568 27.543C45.5258 27.2512 45.7036 27.0368 46.0246 26.9775C47.6437 26.6788 49.3368 27.4433 50.1926 28.8588C50.3703 29.1527 50.3301 29.4392 50.0864 29.6108C49.8077 29.8059 49.5012 29.7465 49.2887 29.4187C48.979 28.9415 48.5934 28.5573 48.0882 28.3154Z" fill="#F7F3F3"/>
<path d="M53.269 18.581C56.9418 20.5578 59.6962 23.4186 61.5322 27.1633C61.8772 27.8734 61.7276 28.4106 61.1227 28.7191C60.479 29.0463 59.8938 28.8347 59.5325 28.1122C58.0431 25.1273 55.9146 22.7117 53.0346 21.0221C49.6197 19.0203 45.9191 18.4608 42.0271 19.0405C41.2528 19.1553 40.7387 18.9323 40.5634 18.3973C40.3025 17.6091 40.6402 17.0274 41.4731 16.8867C45.584 16.1972 49.5184 16.7504 53.269 18.581Z" fill="#7093BC"/>
<path d="M51.4136 22.4108C54.194 23.9106 56.3935 26.1828 57.8834 29.1359C58.3301 30.0316 58.1582 30.568 57.387 30.8789C56.7393 31.1387 56.2837 30.8899 55.87 30.0778C54.8984 28.1279 53.4535 26.4528 51.6675 25.2054C48.8993 23.2776 45.8196 22.6763 42.5029 23.0801C42.2713 23.1164 42.0377 23.1382 41.8033 23.1454C41.1966 23.1465 40.8662 22.8382 40.7518 22.1772C40.6572 21.6304 40.8762 21.1862 41.3983 21.0776C42.2433 20.8923 43.1028 20.781 43.967 20.7449C46.5304 20.6612 48.9734 21.2003 51.4136 22.4108Z" fill="#7093BC"/>
<path d="M49.3407 25.985C51.8755 27.2733 53.4548 28.9976 54.688 31.0635C54.7641 31.18 54.8164 31.3104 54.8416 31.4472C54.8668 31.584 54.8646 31.7244 54.835 31.8603C54.8054 31.9963 54.7491 32.1249 54.6693 32.2389C54.5895 32.3528 54.4878 32.4497 54.3702 32.524C53.831 32.8862 53.2361 32.7789 52.8135 32.238C52.1479 31.3896 51.5697 30.4517 50.8055 29.7045C48.6093 27.5632 45.9161 26.8941 42.9122 27.2389C42.5185 27.2843 41.984 27.2307 41.7244 26.992C41.4648 26.7533 41.379 26.223 41.404 25.8322C41.4349 25.3446 41.8984 25.1633 42.3386 25.0844C44.7362 24.6571 47.4372 25.0571 49.3407 25.985Z" fill="#7093BC"/>
<path d="M46.9395 31.8068C45.8397 31.2281 44.6897 31.0499 43.4858 31.1504C43.2684 31.1718 43.0561 31.1959 42.8399 31.2046C42.1227 31.2237 41.7202 30.8795 41.6473 30.192C41.5826 29.5819 41.9543 29.1336 42.6254 29.0097C46.0102 28.3852 49.5499 29.9835 51.339 32.9427C51.7105 33.5572 51.6264 34.1561 51.1169 34.5149C50.5343 34.9228 49.8935 34.7985 49.4492 34.1132C48.8017 33.1157 47.9957 32.3124 46.9395 31.8068Z" fill="#7093BC"/>
</svg>
