<svg width="24" height="24" viewBox="0 0 24 24" fill="none" xmlns="http://www.w3.org/2000/svg">
<path fill-rule="evenodd" clip-rule="evenodd" d="M7.2924 15.2929C6.90188 15.6834 6.90188 16.3166 7.29241 16.7071C7.68293 17.0976 8.31609 17.0976 8.70662 16.7071L11.9995 13.4142L15.2924 16.7071C15.6829 17.0976 16.3161 17.0976 16.7066 16.7071C17.0971 16.3166 17.0971 15.6834 16.7066 15.2929L13.4137 12L16.7066 8.70711C17.0971 8.31658 17.0971 7.68342 16.7066 7.29289C16.3161 6.90237 15.6829 6.90237 15.2924 7.29289L11.9995 10.5858L8.70662 7.29289C8.31609 6.90237 7.68293 6.90237 7.29241 7.29289C6.90188 7.68342 6.90188 8.31658 7.29241 8.70711L10.5853 12L7.2924 15.2929Z" fill="currentColor" fill-opacity="0.4"/>
</svg>
